<svg xmlns="http://www.w3.org/2000/svg" width="70" height="71" viewBox="0 0 70 71" fill="none"><path d="M34.7285 29.104C33.2935 28.0423 31.0768 27.179 28.1135 26.549C25.4768 25.9773 23.5635 25.254 22.3968 24.4023C21.5101 23.7373 21.0901 22.8506 21.0901 21.579C21.0901 20.3073 21.6151 19.2923 22.7351 18.3823C23.9485 17.4023 25.6285 16.9006 27.7401 16.9006C30.0035 16.9006 31.7885 17.4256 33.0251 18.4756C34.0518 19.339 34.5651 20.3073 34.6351 21.509C34.6701 22.1506 35.2418 22.6406 35.8718 22.6056C36.5135 22.5706 37.0035 22.0106 36.9685 21.369C36.8635 19.5256 36.0468 17.9506 34.5301 16.679C33.1185 15.489 31.2751 14.8006 29.0235 14.614V10.6823C29.0235 10.0406 28.4985 9.51562 27.8568 9.51562C27.2151 9.51562 26.6901 10.0406 26.6901 10.6823V14.6256C24.5085 14.789 22.6651 15.419 21.2535 16.5623C19.5968 17.9156 18.7451 19.5956 18.7451 21.5673C18.7451 23.574 19.5035 25.1606 20.9968 26.2573C22.4318 27.319 24.6485 28.1823 27.6118 28.8123C30.2018 29.3723 32.1851 30.119 33.3285 30.959C34.2151 31.624 34.6351 32.5106 34.6351 33.7823C34.6351 35.054 34.1101 36.069 32.9901 36.979C31.7768 37.959 30.0968 38.4606 27.9851 38.4606C25.7218 38.4606 23.9368 37.9356 22.7001 36.8856C21.6734 36.0223 21.1601 35.054 21.0901 33.8523C21.0551 33.2106 20.5068 32.7206 19.8535 32.7556C19.2118 32.7906 18.7218 33.3506 18.7568 33.9923C18.8618 35.8356 19.6785 37.4106 21.1951 38.6823C22.6068 39.8723 24.4618 40.5606 26.7018 40.7473V44.679C26.7018 45.3206 27.2268 45.8456 27.8685 45.8456C28.5101 45.8456 29.0351 45.3206 29.0351 44.679V40.7356C31.2168 40.5723 33.0601 39.9423 34.4718 38.799C36.1285 37.4456 36.9801 35.7656 36.9801 33.794C36.9685 31.7873 36.2218 30.2006 34.7285 29.104Z" fill="#363762"></path><path d="M27.8683 52.03C14.3467 52.03 3.33333 41.11 3.33333 27.6817C3.33333 14.2533 14.335 3.33333 27.8683 3.33333C41.4017 3.33333 52.4033 14.2533 52.4033 27.6817C52.4033 28.3233 52.9283 28.8483 53.57 28.8483C54.2117 28.8483 54.7367 28.3233 54.7367 27.6817C54.725 12.97 42.685 1 27.8683 1C13.0517 1 1 12.97 1 27.6817C1 42.3933 13.0517 54.3633 27.8683 54.3633C28.51 54.3633 29.035 53.8383 29.035 53.1967C29.035 52.555 28.51 52.03 27.8683 52.03Z" fill="#363762"></path><path d="M69.6699 54.2925C69.4949 53.8608 69.0633 53.5692 68.5966 53.5692H61.7949V36.1042C61.7949 35.4625 61.2699 34.9375 60.6282 34.9375H46.4999C45.8582 34.9375 45.3332 35.4625 45.3332 36.1042V53.5808H38.5316C38.0649 53.5808 37.6332 53.8608 37.4582 54.3042C37.2716 54.7358 37.3766 55.2375 37.7033 55.5758L52.7299 70.6608C52.9516 70.8825 53.2433 70.9992 53.5583 70.9992C53.8733 70.9992 54.1649 70.8708 54.3866 70.6608L69.4132 55.5758C69.7516 55.2375 69.8566 54.7358 69.6699 54.2925ZM53.5583 68.1758L41.3432 55.9142H46.4999C47.1416 55.9142 47.6666 55.3892 47.6666 54.7475V37.2708H59.4616V54.7475C59.4616 55.3892 59.9866 55.9142 60.6282 55.9142H65.7849L53.5583 68.1758Z" fill="#363762"></path></svg>