<svg xmlns="http://www.w3.org/2000/svg" width="71" height="70" viewBox="0 0 71 70" fill="none"><g clip-path="url(#clip0_852_47)"><path fill-rule="evenodd" clip-rule="evenodd" d="M34.5067 30.9398V30.9402C34.5067 31.5663 33.9996 32.0725 33.3743 32.0725H12.0888C5.70837 32.0725 0.519531 26.8837 0.519531 20.5033V19.102C0.519531 12.7231 5.7085 7.53125 12.0888 7.53125H68.3879C69.0134 7.53125 69.5194 8.0377 69.5194 8.66282C69.5194 9.28809 69.0124 9.7952 68.3879 9.7952H12.0888C6.95751 9.7952 2.78189 13.9699 2.78189 19.102V20.5033C2.78189 25.6346 6.9568 29.8086 12.0888 29.8086H33.3751C34.0006 29.8086 34.5073 30.3149 34.5067 30.9398Z" fill="#363762"></path><path fill-rule="evenodd" clip-rule="evenodd" d="M30.7277 15.2887L30.7283 15.2899L35.2019 24.341C35.478 24.9002 35.2483 25.5782 34.687 25.8548L34.6839 25.8564C34.5222 25.9375 34.3534 25.9747 34.1854 25.9747C33.7675 25.9747 33.3676 25.742 33.1701 25.3437L33.17 25.3437L30.1143 19.1585L29.6805 18.2806L29.2237 19.1468L25.9419 25.3699L25.9417 25.3702C25.7422 25.7495 25.3278 25.9862 24.9227 25.9741L24.9185 25.974C24.4906 25.9649 24.1037 25.7135 23.9211 25.3284L23.921 25.3281L20.8858 18.9352L20.4607 18.0399L19.9932 18.9138L16.5378 25.3735L16.5374 25.3742C16.3312 25.7562 15.9312 25.9852 15.4851 25.9711C15.0524 25.9527 14.6682 25.686 14.4986 25.2855L14.4981 25.2843L10.5635 16.0622L10.5635 16.062C10.3186 15.4865 10.5859 14.8223 11.1607 14.5778L11.1615 14.5774C11.736 14.3318 12.3992 14.5979 12.6454 15.1739L12.6455 15.1741L15.2447 21.2651L15.6539 22.2239L16.1455 21.3047L19.5226 14.9902L19.5231 14.9893C19.7254 14.6091 20.1089 14.3788 20.5457 14.3911L20.5479 14.3911C20.9737 14.4013 21.3579 14.6515 21.5429 15.0391L21.5431 15.0394L24.567 21.4105L24.9951 22.3125L25.4609 21.4294L28.7139 15.2622L28.7141 15.2619C28.911 14.8879 29.2721 14.6606 29.7332 14.6581C30.158 14.6661 30.5418 14.9099 30.7277 15.2887Z" fill="#363762"></path><path fill-rule="evenodd" clip-rule="evenodd" d="M55.6077 18.2342C47.8293 15.9003 39.5958 20.3332 37.2618 28.1116C37.2613 28.1133 37.2608 28.115 37.2603 28.1166C36.6828 30.0622 36.5135 32.1067 36.7629 34.1208C36.7821 34.2974 36.8363 34.4684 36.9222 34.6239C37.0081 34.7793 37.1241 34.9162 37.2634 35.0264C37.4027 35.1366 37.5625 35.2181 37.7336 35.2659C37.9046 35.3138 38.0835 35.3272 38.2598 35.3053C38.4361 35.2834 38.6062 35.2266 38.7604 35.1383C38.9145 35.05 39.0496 34.932 39.1576 34.791C39.2657 34.65 39.3447 34.489 39.3899 34.3172C39.4352 34.1454 39.4458 33.9663 39.4212 33.7904C39.2176 32.1427 39.3559 30.4722 39.8276 28.8815L39.8283 28.879L39.8287 28.8777C41.7481 22.4883 48.4473 18.8825 54.8378 20.8C61.2296 22.7179 64.8372 29.4185 62.9193 35.8102C61.0016 42.2016 54.3017 45.8091 47.9103 43.8921C46.3211 43.4133 44.8484 42.6115 43.5834 41.5368C43.4495 41.422 43.2943 41.3347 43.1265 41.2801C42.9588 41.2254 42.782 41.2044 42.6061 41.2183C42.4302 41.2321 42.2588 41.2806 42.1018 41.3609C41.9447 41.4412 41.805 41.5517 41.6908 41.6861C41.5765 41.8205 41.49 41.9762 41.436 42.1441C41.3821 42.3121 41.3619 42.4891 41.3765 42.6649C41.3912 42.8406 41.4404 43.0118 41.5214 43.1685C41.6024 43.3253 41.7135 43.4644 41.8484 43.5781C43.3944 44.8916 45.1956 45.8719 47.138 46.4571L47.1392 46.4575C50.5678 47.4862 54.0842 47.1992 57.1454 45.8916L58.2618 47.9691C58.2114 48.0249 58.1553 48.0762 58.1084 48.1347C57.1686 49.3074 56.8842 51.0696 57.7084 52.599L62.2005 60.9346C62.7916 62.0315 63.7534 62.7692 64.7732 63.0285C65.7929 63.2877 66.8254 63.1063 67.6855 62.6432C68.5456 62.1802 69.2658 61.4169 69.6108 60.4228C69.9558 59.4288 69.8704 58.2213 69.2801 57.124L64.7937 48.7832C64.2897 47.8464 63.432 47.122 62.3876 46.8076C61.7863 46.6267 61.186 46.6019 60.6183 46.6919L59.5038 44.6218C62.2808 42.7862 64.4563 40.0087 65.4851 36.5801C67.819 28.8017 63.3861 20.5682 55.6077 18.2342ZM54.0664 23.3666C53.8966 23.3116 53.7176 23.291 53.5399 23.3061C53.3621 23.3212 53.1891 23.3716 53.0311 23.4545C52.8731 23.5373 52.7332 23.6509 52.6197 23.7885C52.5061 23.9262 52.4213 24.0851 52.37 24.256C52.3187 24.4269 52.3021 24.6063 52.3211 24.7837C52.3401 24.9611 52.3943 25.1329 52.4806 25.2891C52.5669 25.4452 52.6836 25.5826 52.8237 25.693C52.9638 25.8035 53.1245 25.8849 53.2965 25.9324C56.8542 26.9999 58.857 30.7119 57.7895 34.2696C57.7344 34.4394 57.7138 34.6184 57.7289 34.7962C57.7439 34.974 57.7944 35.147 57.8772 35.305C57.96 35.4631 58.0736 35.603 58.2113 35.7165C58.3489 35.8301 58.5078 35.915 58.6788 35.9663C58.8497 36.0175 59.0291 36.0342 59.2065 36.0151C59.3839 35.9961 59.5558 35.9419 59.7119 35.8555C59.8681 35.7692 60.0054 35.6526 60.1159 35.5124C60.2264 35.3723 60.3077 35.2115 60.3552 35.0395C61.8388 30.0951 59.0107 24.8502 54.0664 23.3666ZM61.6173 49.3746C61.96 49.4777 62.2477 49.718 62.43 50.0568L66.9156 58.396C67.1989 58.9227 67.1797 59.2502 67.0778 59.544C66.9759 59.8378 66.7355 60.1138 66.417 60.2852C66.0985 60.4567 65.7358 60.5054 65.4344 60.4288C65.1332 60.3516 64.8487 60.1891 64.565 59.6626L60.072 51.3253C59.7535 50.7343 59.8707 50.2162 60.1962 49.8099C60.5218 49.4036 60.9794 49.1826 61.6173 49.3746Z" fill="#363762"></path></g><defs><clipPath id="clip0_852_47"><rect width="71" height="70" fill="white"></rect></clipPath></defs></svg>