<svg xmlns="http://www.w3.org/2000/svg" width="71" height="71" viewBox="0 0 71 71" fill="none"><path d="M11.5 60.9012V69.832C11.5 70.476 12.0215 70.9987 12.6667 70.9987H23.1667C23.8118 70.9987 24.3333 70.476 24.3333 69.832V51.1654C24.3333 50.8562 24.2108 50.5587 23.9915 50.3405L9.16667 35.5157V21.4154C9.16667 19.1637 7.335 17.332 5.08333 17.332C2.83167 17.332 1 19.1637 1 21.4154V47.082C1 47.3434 1.0875 47.5954 1.2485 47.8007L11.5 60.9012ZM3.33333 21.4154C3.33333 20.4505 4.1185 19.6654 5.08333 19.6654C6.04817 19.6654 6.83333 20.4505 6.83333 21.4154V35.9987C6.83333 36.3079 6.95583 36.6054 7.17517 36.8235L8.86567 38.5152C7.01883 39.0624 5.66667 40.7762 5.66667 42.7992C5.66667 43.9915 6.131 45.1127 6.9745 45.9574L14.1752 53.1569L15.8248 51.5072L8.62417 44.3077C8.22167 43.904 8 43.3685 8 42.7992C8 41.622 8.95667 40.6654 10.1327 40.6654C10.6938 40.6654 11.2433 40.8929 11.6412 41.2907L22 51.6484V68.6654H13.8333V60.4987C13.8333 60.2374 13.7458 59.9854 13.5848 59.78L3.33333 46.6795V21.4154Z" fill="#363762"></path><path d="M66.917 17.332C64.6653 17.332 62.8337 19.1637 62.8337 21.4154V35.5157L48.0088 50.3405C47.7895 50.5587 47.667 50.8562 47.667 51.1654V69.832C47.667 70.476 48.1885 70.9987 48.8337 70.9987H59.3337C59.9788 70.9987 60.5003 70.476 60.5003 69.832V60.9012L70.7518 47.8007C70.9128 47.5954 71.0003 47.3434 71.0003 47.082V21.4154C71.0003 19.1637 69.1687 17.332 66.917 17.332ZM68.667 46.6795L58.4155 59.78C58.2545 59.9854 58.167 60.2374 58.167 60.4987V68.6654H50.0003V51.6484L60.3592 41.2895C60.757 40.8929 61.3053 40.6654 61.8677 40.6654C63.0437 40.6654 64.0003 41.622 64.0003 42.7992C64.0003 43.3685 63.7787 43.9052 63.3762 44.3077L56.1755 51.5072L57.8252 53.1569L65.0258 45.9562C65.8693 45.1127 66.3337 43.9915 66.3337 42.7992C66.3337 40.7762 64.9815 39.0624 63.1347 38.5152L64.8252 36.8235C65.0445 36.6054 65.167 36.3079 65.167 35.9987V21.4154C65.167 20.4505 65.9522 19.6654 66.917 19.6654C67.8818 19.6654 68.667 20.4505 68.667 21.4154V46.6795Z" fill="#363762"></path><path d="M19.667 25.5V27.8333H23.167V29C23.167 29.644 23.6885 30.1667 24.3337 30.1667H25.5003V33.6667H27.8337V30.1667H30.167V33.6667H32.5003V30.1667H34.8337V33.6667H37.167V30.1667H39.5003V33.6667H41.8337V30.1667H44.167V33.6667H46.5003V30.1667H47.667C48.3122 30.1667 48.8337 29.644 48.8337 29V27.8333H52.3337V25.5H48.8337V23.1667H52.3337V20.8333H48.8337V18.5H52.3337V16.1667H48.8337V13.8333H52.3337V11.5H48.8337V9.16667H52.3337V6.83333H48.8337V5.66667C48.8337 5.02267 48.3122 4.5 47.667 4.5H46.5003V1H44.167V4.5H41.8337V1H39.5003V4.5H37.167V1H34.8337V4.5H32.5003V1H30.167V4.5H27.8337V1H25.5003V4.5H24.3337C23.6885 4.5 23.167 5.02267 23.167 5.66667V6.83333H19.667V9.16667H23.167V11.5H19.667V13.8333H23.167V16.1667H19.667V18.5H23.167V20.8333H19.667V23.1667H23.167V25.5H19.667ZM30.167 20.8333C30.167 20.1905 30.6897 19.6667 31.3337 19.6667C31.9777 19.6667 32.5003 20.1905 32.5003 20.8333C32.5003 21.4762 31.9777 22 31.3337 22C30.6897 22 30.167 21.4762 30.167 20.8333ZM32.5003 24.1187C33.4885 23.7663 34.2667 22.9882 34.619 22H41.8337V27.8333H32.5003V24.1187ZM46.5003 27.8333H44.167V20.8333C44.167 20.1893 43.6455 19.6667 43.0003 19.6667H34.619C34.136 18.3122 32.8527 17.3333 31.3337 17.3333C29.404 17.3333 27.8337 18.9037 27.8337 20.8333C27.8337 22.3523 28.8125 23.6357 30.167 24.1187V27.8333H25.5003V13.8333H32.715C33.198 15.1878 34.4813 16.1667 36.0003 16.1667C37.5193 16.1667 38.8027 15.1878 39.2857 13.8333H43.0003C43.6455 13.8333 44.167 13.3107 44.167 12.6667V6.83333H46.5003V27.8333ZM34.8337 12.6667C34.8337 12.0238 35.3563 11.5 36.0003 11.5C36.6443 11.5 37.167 12.0238 37.167 12.6667C37.167 13.3095 36.6443 13.8333 36.0003 13.8333C35.3563 13.8333 34.8337 13.3095 34.8337 12.6667ZM41.8337 6.83333V11.5H39.2857C38.8027 10.1455 37.5193 9.16667 36.0003 9.16667C34.4813 9.16667 33.198 10.1455 32.715 11.5H25.5003V6.83333H41.8337Z" fill="#363762"></path></svg>