<?xml version="1.0" encoding="UTF-8"?>
<svg xmlns="http://www.w3.org/2000/svg" width="165" height="40" viewBox="0 0 165 40" fill="none">
  <path fill-rule="evenodd" clip-rule="evenodd" d="M1.82617 12.6562H10.2772L5.84815 17.5912L1.84682 17.6266L1.82617 12.6562Z" fill="#EE6924"></path>
  <path fill-rule="evenodd" clip-rule="evenodd" d="M5.37395 26.3915L15.0044 26.3813L10.0685 31.3763L5.39578 31.3722L0 31.3679V1.24609L4.8583 1.25277L18.8411 1.26989L14.3486 5.92613L5.37306 5.91945L5.37395 26.3915Z" fill="#363762"></path>
  <path fill-rule="evenodd" clip-rule="evenodd" d="M11.0001 11.1719L14.6772 14.8397L14.5607 14.9543L10.9912 12.0663L11.0001 11.1719Z" fill="#B33E1A"></path>
  <path fill-rule="evenodd" clip-rule="evenodd" d="M21.3742 21.2109L17.2988 25.5232L17.4089 25.6825L21.3704 22.2052L21.3742 21.2109Z" fill="#B33E1A"></path>
  <path fill-rule="evenodd" clip-rule="evenodd" d="M21.3853 29.5962L11.0123 39.8433L10.9648 31.9016L21.3744 21.8594L21.3853 29.5962Z" fill="#EE6924"></path>
  <path fill-rule="evenodd" clip-rule="evenodd" d="M11.001 11.1724L21.5323 0.15625L21.5618 8.08897L14.5757 14.9398L11.001 11.1724Z" fill="#EE6924"></path>
  <path fill-rule="evenodd" clip-rule="evenodd" d="M10.918 19.2211L10.9976 11.6445L21.3762 21.2156L17.4108 25.6861L10.918 19.2211Z" fill="#EE6924"></path>
  <path d="M29.5615 24.4136V8.24065H40.4041V11.0598H32.9636V14.9135H39.8462V17.7328H32.9636V21.5943H40.4355V24.4136H29.5615Z" fill="#363762"></path>
  <path d="M56.1252 8.24065V24.4136H53.1867L46.1862 14.2344H46.0684V24.4136H42.6663V8.24065H45.6519L52.5975 18.4119H52.7389V8.24065H56.1252Z" fill="#363762"></path>
  <path d="M72.691 13.9027H69.2497C69.1868 13.4553 69.0585 13.0578 68.8647 12.7103C68.6709 12.3576 68.4221 12.0575 68.1183 11.8101C67.8145 11.5626 67.4635 11.3731 67.0654 11.2415C66.6726 11.1099 66.2457 11.0441 65.7848 11.0441C64.9519 11.0441 64.2265 11.252 63.6084 11.6679C62.9903 12.0786 62.511 12.6787 62.1706 13.4684C61.8301 14.2528 61.6599 15.2057 61.6599 16.3271C61.6599 17.4801 61.8301 18.4487 62.1706 19.2332C62.5163 20.0176 62.9982 20.6099 63.6162 21.01C64.2343 21.4101 64.9493 21.6101 65.7612 21.6101C66.2169 21.6101 66.6385 21.5496 67.0261 21.4285C67.419 21.3074 67.7673 21.1311 68.0711 20.8994C68.3749 20.6625 68.6263 20.3756 68.8254 20.0387C69.0297 19.7017 69.1711 19.3174 69.2497 18.8857L72.691 18.9015C72.6019 19.6438 72.3793 20.3598 72.0231 21.0495C71.6722 21.7339 71.1982 22.3472 70.601 22.8894C70.0092 23.4264 69.302 23.8529 68.4797 24.1687C67.6626 24.4794 66.7381 24.6347 65.7062 24.6347C64.271 24.6347 62.9877 24.3083 61.8563 23.6554C60.7301 23.0026 59.8397 22.0576 59.1849 20.8205C58.5354 19.5833 58.2107 18.0855 58.2107 16.3271C58.2107 14.5635 58.5407 13.063 59.2007 11.8259C59.8606 10.5887 60.7563 9.6463 61.8877 8.99875C63.0191 8.34594 64.2919 8.01953 65.7062 8.01953C66.6385 8.01953 67.5028 8.15115 68.299 8.41438C69.1004 8.67761 69.8101 9.06193 70.4282 9.56733C71.0463 10.0675 71.5491 10.6808 71.9367 11.4073C72.3296 12.1338 72.581 12.9656 72.691 13.9027Z" fill="#363762"></path>
  <path d="M89.9173 16.3271C89.9173 18.0907 89.5847 19.5912 88.9194 20.8283C88.2595 22.0655 87.3585 23.0105 86.2167 23.6633C85.08 24.3109 83.802 24.6347 82.3825 24.6347C80.9525 24.6347 79.6692 24.3083 78.5326 23.6554C77.396 23.0026 76.4977 22.0576 75.8377 20.8205C75.1777 19.5833 74.8477 18.0855 74.8477 16.3271C74.8477 14.5635 75.1777 13.063 75.8377 11.8259C76.4977 10.5887 77.396 9.6463 78.5326 8.99875C79.6692 8.34594 80.9525 8.01953 82.3825 8.01953C83.802 8.01953 85.08 8.34594 86.2167 8.99875C87.3585 9.6463 88.2595 10.5887 88.9194 11.8259C89.5847 13.063 89.9173 14.5635 89.9173 16.3271ZM86.4681 16.3271C86.4681 15.1847 86.2979 14.2213 85.9574 13.4368C85.6222 12.6524 85.1481 12.0575 84.5353 11.6521C83.9224 11.2467 83.2048 11.0441 82.3825 11.0441C81.5601 11.0441 80.8425 11.2467 80.2297 11.6521C79.6169 12.0575 79.1402 12.6524 78.7997 13.4368C78.4645 14.2213 78.2969 15.1847 78.2969 16.3271C78.2969 17.4695 78.4645 18.4329 78.7997 19.2174C79.1402 20.0018 79.6169 20.5967 80.2297 21.0021C80.8425 21.4075 81.5601 21.6101 82.3825 21.6101C83.2048 21.6101 83.9224 21.4075 84.5353 21.0021C85.1481 20.5967 85.6222 20.0018 85.9574 19.2174C86.2979 18.4329 86.4681 17.4695 86.4681 16.3271Z" fill="#363762"></path>
  <path d="M92.2161 24.4136V8.24065H98.5645C99.7797 8.24065 100.817 8.45913 101.676 8.89609C102.54 9.32779 103.197 9.94112 103.648 10.7361C104.104 11.5258 104.332 12.455 104.332 13.5237C104.332 14.5977 104.101 15.5216 103.64 16.2955C103.179 17.0641 102.511 17.6538 101.637 18.0644C100.767 18.4751 99.7143 18.6804 98.4781 18.6804H94.2275V15.9323H97.9281C98.5776 15.9323 99.1171 15.8428 99.5466 15.6638C99.9762 15.4848 100.296 15.2163 100.505 14.8583C100.72 14.5003 100.827 14.0554 100.827 13.5237C100.827 12.9867 100.72 12.5339 100.505 12.1654C100.296 11.7969 99.9735 11.5179 99.5388 11.3283C99.1093 11.1336 98.5671 11.0362 97.9124 11.0362H95.6182V24.4136H92.2161ZM100.906 17.0536L104.905 24.4136H101.149L97.2367 17.0536H100.906Z" fill="#363762"></path>
  <path d="M106.957 24.4136V8.24065H117.8V11.0598H110.359V14.9135H117.242V17.7328H110.359V21.5943H117.831V24.4136H106.957Z" fill="#363762"></path>
  <path d="M129.233 12.8919C129.17 12.2549 128.9 11.76 128.424 11.4073C127.947 11.0546 127.3 10.8782 126.483 10.8782C125.928 10.8782 125.459 10.9572 125.077 11.1151C124.694 11.2678 124.401 11.481 124.197 11.7548C123.998 12.0285 123.898 12.3392 123.898 12.6866C123.888 12.9762 123.948 13.2289 124.079 13.4447C124.215 13.6606 124.401 13.8475 124.637 14.0054C124.872 14.1581 125.145 14.2923 125.454 14.4081C125.763 14.5187 126.093 14.6135 126.444 14.6924L127.889 15.0399C128.591 15.1978 129.236 15.4084 129.822 15.6717C130.409 15.9349 130.917 16.2587 131.346 16.643C131.776 17.0273 132.109 17.4801 132.344 18.0012C132.585 18.5224 132.708 19.12 132.714 19.7939C132.708 20.7836 132.457 21.6417 131.959 22.3682C131.467 23.0895 130.755 23.6502 129.822 24.0503C128.895 24.4451 127.777 24.6426 126.467 24.6426C125.168 24.6426 124.037 24.4425 123.073 24.0424C122.115 23.6423 121.366 23.05 120.826 22.2656C120.292 21.4759 120.012 20.4993 119.985 19.3358H123.277C123.314 19.8781 123.469 20.3308 123.741 20.6941C124.019 21.0521 124.388 21.3232 124.849 21.5075C125.315 21.6865 125.841 21.776 126.428 21.776C127.004 21.776 127.504 21.6917 127.929 21.5233C128.358 21.3548 128.691 21.1205 128.927 20.8205C129.162 20.5204 129.28 20.1755 129.28 19.786C129.28 19.4227 129.173 19.1173 128.958 18.8699C128.748 18.6225 128.439 18.4119 128.031 18.2382C127.628 18.0644 127.133 17.9065 126.546 17.7643L124.794 17.3221C123.437 16.9904 122.366 16.4719 121.58 15.7664C120.795 15.061 120.404 14.1107 120.41 12.9156C120.404 11.9364 120.664 11.0809 121.187 10.3491C121.716 9.61734 122.442 9.04613 123.364 8.63549C124.286 8.22485 125.333 8.01953 126.507 8.01953C127.701 8.01953 128.743 8.22485 129.634 8.63549C130.529 9.04613 131.226 9.61734 131.724 10.3491C132.221 11.0809 132.478 11.9285 132.494 12.8919H129.233Z" fill="#EE6924"></path>
  <path d="M135.002 24.4136V8.24065H138.404V15.3716H138.616L144.407 8.24065H148.484L142.513 15.4821L148.555 24.4136H144.485L140.077 17.7643L138.404 19.8175V24.4136H135.002Z" fill="#EE6924"></path>
  <path d="M149.645 8.24065H153.456L157.125 15.2057H157.282L160.951 8.24065H164.762L158.893 18.6962V24.4136H155.514V18.6962L149.645 8.24065Z" fill="#EE6924"></path>
</svg>
