<svg xmlns="http://www.w3.org/2000/svg" width="75" height="72" viewBox="0 0 75 72" fill="none"><g clip-path="url(#clip0_752_806)"><path fill-rule="evenodd" clip-rule="evenodd" d="M73.32 12.2805L29.05 2.34048V3.92048C29.0318 4.05739 28.9644 4.18302 28.8605 4.274C28.7566 4.36499 28.6232 4.41515 28.485 4.41515C28.3469 4.41515 28.2135 4.36499 28.1096 4.274C28.0056 4.18302 27.9383 4.05739 27.92 3.92048V2.75048L3.12004 21.2205L47.84 32.3205L73.32 12.2805ZM35.43 37.2105C35.48 37.2905 35.5 37.3805 35.5 37.4705V55.1005C35.5 55.1505 35.5 55.2005 35.48 55.2505L35.46 55.3305C35.4123 55.4497 35.3328 55.5535 35.23 55.6305L24.09 64.0405L47.36 69.8105V44.6105L47.23 44.6005L45 44.0405H44.99C44.8528 43.9945 44.7381 43.8981 44.6693 43.7707C44.6006 43.6434 44.5828 43.4946 44.6197 43.3546C44.6566 43.2146 44.7454 43.094 44.868 43.017C44.9907 42.9401 45.138 42.9128 45.28 42.9405L47.36 43.4705V33.3705L2.71004 22.2805V40.4805L13.71 31.9805C13.79 31.9305 13.88 31.8805 13.98 31.8705C14.08 31.8505 14.16 31.8505 14.26 31.8705L34.98 36.8405C35.11 36.8705 35.22 36.9405 35.31 37.0405C35.36 37.0805 35.41 37.1405 35.43 37.2105ZM2.15004 59.7605C1.83004 59.6705 1.67004 59.4905 1.64004 59.3005C1.59591 59.2208 1.57189 59.1315 1.57004 59.0405V59.0205C1.54991 58.9626 1.53976 58.9017 1.54004 58.8405V41.7405C1.54004 41.6505 1.55004 41.5805 1.57004 41.5105V21.4405C1.55934 21.3215 1.57646 21.2017 1.62004 21.0905C1.67631 20.9513 1.7697 20.8302 1.89004 20.7405L28.05 1.25048C28.144 1.18219 28.2517 1.13519 28.3657 1.11274C28.4797 1.09029 28.5972 1.09293 28.71 1.12048L74.25 11.3405C74.3783 11.3684 74.4975 11.4278 74.5971 11.5133C74.6966 11.5989 74.7732 11.7079 74.82 11.8305C74.85 11.9005 74.87 11.9805 74.87 12.0705V50.9405C74.8524 51.0408 74.8151 51.1367 74.7602 51.2226C74.7052 51.3084 74.6338 51.3825 74.55 51.4405L48.4 70.9405C48.3046 71.0096 48.1951 71.057 48.0794 71.0795C47.9637 71.1019 47.8445 71.0989 47.73 71.0705L2.18004 59.7705H2.15004V59.7605ZM2.71004 58.7305L2.77004 58.7605L22.37 63.6205V47.4105L14.69 45.5005V46.3205C14.6718 46.4574 14.6044 46.583 14.5005 46.674C14.3966 46.765 14.2632 46.8151 14.125 46.8151C13.9869 46.8151 13.8535 46.765 13.7496 46.674C13.6456 46.583 13.5783 46.4574 13.56 46.3205V45.2205L2.71004 42.5205V58.7305ZM23.51 63.0705L33.68 55.3705L33.58 55.3505C33.4428 55.3046 33.3281 55.2081 33.2593 55.0807C33.1906 54.9534 33.1728 54.8046 33.2097 54.6646C33.2466 54.5247 33.3354 54.404 33.458 54.327C33.5807 54.2501 33.728 54.2228 33.87 54.2505L34.37 54.3805V38.7205L23.5 47.2705V51.6705H23.6L25.66 52.1905C25.7938 52.2381 25.905 52.334 25.9718 52.4593C26.0386 52.5847 26.0562 52.7304 26.0212 52.868C25.9861 53.0057 25.901 53.1252 25.7824 53.2034C25.6638 53.2815 25.5203 53.3126 25.38 53.2905L23.5 52.8105V63.0705H23.51ZM5.01005 55.9505C4.93831 55.9898 4.87589 56.0442 4.82703 56.1098C4.77817 56.1754 4.74402 56.2508 4.72689 56.3308C4.70975 56.4109 4.71005 56.4936 4.72775 56.5735C4.74545 56.6534 4.78014 56.7285 4.82947 56.7938C4.87879 56.8591 4.94159 56.913 5.01361 56.9518C5.08562 56.9907 5.16515 57.0136 5.24679 57.019C5.32844 57.0243 5.41029 57.0121 5.48677 56.983C5.56326 56.9539 5.63258 56.9087 5.69004 56.8505L7.25004 55.6905C7.32178 55.6511 7.3842 55.5968 7.43306 55.5311C7.48192 55.4655 7.51607 55.3901 7.5332 55.3101C7.55034 55.2301 7.55004 55.1473 7.53234 55.0675C7.51464 54.9876 7.47995 54.9124 7.43062 54.8472C7.3813 54.7819 7.31849 54.728 7.24648 54.6891C7.17447 54.6503 7.09494 54.6274 7.0133 54.622C6.93165 54.6166 6.8498 54.6289 6.77332 54.658C6.69683 54.687 6.62751 54.7322 6.57004 54.7905L5.01005 55.9505ZM8.91004 53.0405C8.83831 53.0798 8.77589 53.1342 8.72703 53.1998C8.67817 53.2654 8.64402 53.3408 8.62689 53.4208C8.60975 53.5009 8.61005 53.5836 8.62775 53.6635C8.64545 53.7434 8.68014 53.8185 8.72947 53.8838C8.77879 53.9491 8.84159 54.003 8.91361 54.0418C8.98562 54.0807 9.06515 54.1036 9.14679 54.109C9.22844 54.1143 9.31029 54.1021 9.38677 54.073C9.46325 54.0439 9.53258 53.9987 9.59004 53.9405L11.15 52.7705C11.2247 52.7333 11.2903 52.6802 11.3422 52.6149C11.3941 52.5496 11.431 52.4738 11.4504 52.3926C11.4697 52.3115 11.4711 52.2271 11.4543 52.1455C11.4375 52.0638 11.403 51.9868 11.3532 51.9199C11.3034 51.853 11.2395 51.7978 11.1661 51.7583C11.0926 51.7188 11.0114 51.6959 10.9282 51.6912C10.8449 51.6864 10.7616 51.7001 10.6842 51.731C10.6068 51.762 10.5371 51.8096 10.48 51.8705L8.92004 53.0405H8.91004ZM12.82 50.1205C12.7483 50.1598 12.6859 50.2142 12.637 50.2798C12.5882 50.3454 12.554 50.4208 12.5369 50.5008C12.5198 50.5809 12.52 50.6636 12.5377 50.7435C12.5555 50.8234 12.5901 50.8985 12.6395 50.9638C12.6888 51.0291 12.7516 51.083 12.8236 51.1218C12.8956 51.1607 12.9751 51.1836 13.0568 51.189C13.1384 51.1943 13.2203 51.1821 13.2968 51.153C13.3733 51.1239 13.4426 51.0787 13.5 51.0205L14.23 50.4805L15.12 50.7005C15.2603 50.7226 15.4038 50.6915 15.5224 50.6134C15.641 50.5352 15.7261 50.4157 15.7612 50.278C15.7962 50.1404 15.7786 49.9947 15.7118 49.8693C15.645 49.744 15.5338 49.6481 15.4 49.6005H15.39L14.59 49.4005C14.5287 49.3162 14.4454 49.2503 14.3492 49.21C14.253 49.1697 14.1477 49.1566 14.0445 49.1721C13.9414 49.1875 13.8445 49.231 13.7644 49.2977C13.6842 49.3644 13.6239 49.4519 13.59 49.5505C13.33 49.7305 13.07 49.9305 12.82 50.1205ZM18.47 50.3805C18.328 50.3528 18.1807 50.3801 18.058 50.4571C17.9354 50.534 17.8466 50.6547 17.8097 50.7946C17.7728 50.9346 17.7906 51.0834 17.8593 51.2107C17.9281 51.3381 18.0428 51.4345 18.18 51.4805H18.19L20.25 52.0005C20.3903 52.0226 20.5338 51.9915 20.6524 51.9134C20.771 51.8352 20.8561 51.7157 20.8912 51.578C20.9262 51.4404 20.9086 51.2947 20.8418 51.1693C20.775 51.044 20.6638 50.9481 20.53 50.9005H20.52L18.47 50.3805ZM28.74 52.9705C28.598 52.9428 28.4507 52.9701 28.328 53.0471C28.2054 53.124 28.1166 53.2447 28.0797 53.3846C28.0428 53.5246 28.0606 53.6734 28.1293 53.8007C28.1981 53.9281 28.3128 54.0245 28.45 54.0705H28.46L30.52 54.5905C30.6603 54.6126 30.8038 54.5815 30.9224 54.5034C31.041 54.4252 31.1261 54.3057 31.1611 54.168C31.1962 54.0304 31.1786 53.8847 31.1118 53.7593C31.045 53.634 30.9338 53.5381 30.8 53.4905L28.74 52.9705ZM33.79 37.7405L14.66 33.1405V35.0105C14.6418 35.1474 14.5744 35.273 14.4705 35.364C14.3666 35.455 14.2332 35.5051 14.095 35.5051C13.9569 35.5051 13.8235 35.455 13.7196 35.364C13.6156 35.273 13.5483 35.1474 13.53 35.0105V33.5605L3.27004 41.5005L13.56 44.0505C13.56 43.8005 13.72 43.5905 13.96 43.5205C14.32 43.4105 14.69 43.6805 14.69 44.0605V44.3405L22.83 46.3605L33.79 37.7305V37.7405ZM13.55 40.6705C13.5683 40.8074 13.6356 40.933 13.7396 41.024C13.8435 41.115 13.9769 41.1651 14.115 41.1651C14.2532 41.1651 14.3866 41.115 14.4905 41.024C14.5944 40.933 14.6618 40.8074 14.68 40.6705V38.4005C14.68 38.2493 14.62 38.1043 14.5131 37.9974C14.4062 37.8905 14.2612 37.8305 14.11 37.8305C13.9589 37.8305 13.8139 37.8905 13.707 37.9974C13.6001 38.1043 13.54 38.2493 13.54 38.4005V40.6705H13.55ZM39.71 41.5405C39.568 41.5128 39.4207 41.5401 39.298 41.6171C39.1754 41.694 39.0866 41.8147 39.0497 41.9546C39.0128 42.0946 39.0306 42.2434 39.0993 42.3707C39.1681 42.4981 39.2828 42.5945 39.42 42.6405H39.44L41.66 43.2005C41.8021 43.2282 41.9494 43.2008 42.0721 43.1239C42.1947 43.047 42.2835 42.9263 42.3204 42.7863C42.3573 42.6464 42.3395 42.4976 42.2708 42.3702C42.202 42.2428 42.0873 42.1464 41.95 42.1005H41.94L39.71 41.5405ZM50.84 44.3405C50.6998 44.3184 50.5563 44.3494 50.4377 44.4276C50.3191 44.5057 50.234 44.6253 50.1989 44.7629C50.1639 44.9005 50.1815 45.0463 50.2483 45.1716C50.3151 45.2969 50.4263 45.3928 50.56 45.4405L52.79 46.0005C52.9321 46.0282 53.0794 46.0008 53.202 45.9239C53.3247 45.847 53.4135 45.7263 53.4504 45.5863C53.4873 45.4464 53.4695 45.2976 53.4007 45.1702C53.332 45.0428 53.2173 44.9464 53.08 44.9005H53.07L50.84 44.3405ZM56.41 45.7405C56.268 45.7128 56.1207 45.7401 55.998 45.8171C55.8754 45.894 55.7866 46.0147 55.7497 46.1546C55.7128 46.2946 55.7306 46.4434 55.7993 46.5707C55.8681 46.6981 55.9828 46.7945 56.12 46.8405H56.13L58.36 47.4005C58.5003 47.4226 58.6438 47.3915 58.7624 47.3134C58.881 47.2352 58.9661 47.1157 59.0012 46.978C59.0362 46.8404 59.0186 46.6947 58.9518 46.5693C58.885 46.444 58.7738 46.3481 58.64 46.3005L56.41 45.7405ZM61.97 47.1405C61.8298 47.1184 61.6863 47.1494 61.5677 47.2276C61.4491 47.3057 61.364 47.4253 61.3289 47.5629C61.2939 47.7005 61.3115 47.8463 61.3783 47.9716C61.4451 48.0969 61.5563 48.1928 61.69 48.2405L63.92 48.8005C64.0621 48.8282 64.2094 48.8008 64.3321 48.7239C64.4547 48.647 64.5435 48.5263 64.5804 48.3863C64.6173 48.2464 64.5995 48.0976 64.5308 47.9702C64.462 47.8428 64.3473 47.7464 64.21 47.7005H64.2L61.97 47.1405ZM67.54 48.5405C67.398 48.5128 67.2507 48.5401 67.128 48.6171C67.0054 48.694 66.9166 48.8147 66.8797 48.9546C66.8428 49.0946 66.8606 49.2434 66.9293 49.3707C66.9981 49.4981 67.1128 49.5945 67.25 49.6405H67.26L69.49 50.2005C69.6321 50.2282 69.7794 50.2008 69.902 50.1239C70.0247 50.047 70.1134 49.9263 70.1504 49.7863C70.1873 49.6464 70.1695 49.4976 70.1007 49.3702C70.032 49.2428 69.9173 49.1464 69.78 49.1005H69.76L67.54 48.5405ZM48.48 69.4505L73.74 50.5705V13.3905L48.49 33.2705V69.4705L48.48 69.4505ZM27.98 32.6505C27.98 32.8017 28.0401 32.9466 28.147 33.0535C28.2539 33.1604 28.3989 33.2205 28.55 33.2205C28.7012 33.2205 28.8462 33.1604 28.9531 33.0535C29.06 32.9466 29.12 32.8017 29.12 32.6505V30.3905C29.12 30.2393 29.06 30.0943 28.9531 29.9874C28.8462 29.8805 28.7012 29.8205 28.55 29.8205C28.3989 29.8205 28.2539 29.8805 28.147 29.9874C28.0401 30.0943 27.98 30.2393 27.98 30.3905V32.6505ZM27.98 26.0205C27.9983 26.1574 28.0657 26.283 28.1696 26.374C28.2735 26.465 28.4069 26.5151 28.545 26.5151C28.6832 26.5151 28.8166 26.465 28.9205 26.374C29.0244 26.283 29.0918 26.1574 29.11 26.0205V23.7605C29.11 23.6093 29.05 23.4643 28.9431 23.3574C28.8362 23.2505 28.6912 23.1905 28.54 23.1905C28.3889 23.1905 28.2439 23.2505 28.137 23.3574C28.0301 23.4643 27.97 23.6093 27.97 23.7605V26.0205H27.98ZM27.93 20.7205C27.9483 20.8574 28.0156 20.983 28.1196 21.074C28.2235 21.165 28.3569 21.2151 28.495 21.2151C28.6332 21.2151 28.7666 21.165 28.8705 21.074C28.9744 20.983 29.0418 20.8574 29.06 20.7205V18.4705C29.06 18.3193 29 18.1743 28.8931 18.0674C28.7862 17.9605 28.6412 17.9005 28.49 17.9005C28.3389 17.9005 28.1939 17.9605 28.087 18.0674C27.9801 18.1743 27.92 18.3193 27.92 18.4705L27.93 20.7305V20.7205ZM27.94 15.2405C27.94 15.3917 28.0001 15.5366 28.107 15.6435C28.2139 15.7504 28.3589 15.8105 28.51 15.8105C28.6612 15.8105 28.8062 15.7504 28.9131 15.6435C29.02 15.5366 29.08 15.3917 29.08 15.2405V12.9705C29.08 12.8193 29.02 12.6743 28.9131 12.5674C28.8062 12.4605 28.6612 12.4005 28.51 12.4005C28.3589 12.4005 28.2139 12.4605 28.107 12.5674C28.0001 12.6743 27.94 12.8193 27.94 12.9705V15.2305V15.2405ZM27.93 9.58048C27.9483 9.71739 28.0156 9.84302 28.1196 9.934C28.2235 10.025 28.3569 10.0751 28.495 10.0751C28.6332 10.0751 28.7666 10.025 28.8705 9.934C28.9744 9.84302 29.0418 9.71739 29.06 9.58048V7.32048C29.06 7.1693 29 7.02432 28.8931 6.91743C28.7862 6.81053 28.6412 6.75048 28.49 6.75048C28.3389 6.75048 28.1939 6.81053 28.087 6.91743C27.9801 7.02432 27.92 7.1693 27.92 7.32048L27.93 9.58048Z" fill="#363762" stroke="#363762"></path></g><defs><clipPath id="clip0_752_806"><rect width="74" height="71" fill="white" transform="translate(0.980469 0.96875)"></rect></clipPath></defs></svg>